# xmcd CD database file
#
# Track frame offsets:
#	150
#	18345
#	23272
#
# Disc length: 551 seconds
#
# Revision: 0
# Processed by: cddbd v1.5.1PL2 Copyright (c) Steve Scherf et al.
# Submitted via: CDex 1.50beta9
#
DISCID=10022503
DTITLE=FIELDS - WALK THIS WAY
DYEAR=1997
DGENRE=Anime
TTITLE0=WALK THIS WAY
TTITLE1=WALK THIS WAY (TV Size Version)
TTITLE2=WALK THIS WAY (Instrumental Version)
EXTD=YEAR: 1997
EXTT0=
EXTT1=
EXTT2=
PLAYORDER=
